<?xml version="1.0" encoding="UTF-8" standalone="no"?>
<svg fill="#fff" viewBox="0 0 35 35" width="16px" height="16px" version="1.1" xmlns="http://www.w3.org/2000/svg" xmlns:xlink="http://www.w3.org/1999/xlink" xmlns:sketch="http://www.bohemiancoding.com/sketch/ns">
  <path d="M23.0,27.7 C17.4,30.9 10.4,29.0 7.2,23.5 C4.0,18.0 5.9,11.0 11.4,7.8 C16.1,5.1 22.0,6.1 25.6,9.8 L14.6,16.1 C13.3,16.8 12.8,18.6 13.6,19.9 C14.4,21.3 16.1,21.7 17.5,20.9 L33.5,11.8 C33.1,10.9 32.7,10.0 32.2,9.2 C27.5,1.0 16.9,-1.7 8.6,2.9 C0.3,7.7 -2.4,18.1 2.3,26.3 C7.0,34.5 17.6,37.3 25.9,32.6 C26.7,32.1 27.5,31.6 28.2,31.0 L26.9,28.8 C26.1,27.4 24.4,27.0 23.0,27.7 Z M33.9,20.4 L32.4,17.9 L27.5,20.7 L30.4,25.6 L32.8,24.2 L32.8,24.2 C34.2,23.4 34.6,21.7 33.9,20.4 Z"></path>
</svg>
